<?xml version="1.0" encoding="utf-8"?>
<!-- Generator: Adobe Illustrator 26.3.1, SVG Export Plug-In . SVG Version: 6.00 Build 0)  -->
<svg version="1.1" id="Слой_1" xmlns="http://www.w3.org/2000/svg" xmlns:xlink="http://www.w3.org/1999/xlink" x="0px" y="0px"
	 viewBox="0 0 266.44 383.24" style="enable-background:new 0 0 266.44 383.24;" xml:space="preserve">
<style type="text/css">
	.st0{fill:#C06D80;}
</style>
<path class="st0" d="M0,0v383.24h266.44V0H0z M15.31,114.26c0.91-0.92,2.18-1.45,3.49-1.45h6.57c2.09,0,3.79,1.65,3.79,3.68
	c0,2.02-1.7,3.67-3.79,3.67h-3.71l0.38,8.74l27.06,11.51c0.06,0.03,0.12,0.06,0.18,0.1l0.51,0.29l13.18-5.78l-25.74-5.25
	c-1.99-0.41-3.35-2.2-3.16-4.17c0.19-1.96,1.87-3.47,3.91-3.51l17.87-0.31L41.21,86.37H26.68l-2.36,8.55l9.69,5.01l-2-6.58
	c-0.59-1.94,0.56-3.99,2.56-4.56c0.35-0.1,0.71-0.15,1.08-0.15c1.66,0,3.16,1.08,3.63,2.64l3.86,12.7c0.55,1.81-0.07,3.74-1.57,4.94
	c-0.86,0.67-1.94,1.05-3.04,1.05c-0.79,0-1.57-0.19-2.27-0.55l-17.45-9.02c-1.99-1.03-2.97-3.22-2.38-5.33l3.48-12.59
	c0.57-2.03,2.48-3.46,4.65-3.46h18.52c1.98,0,3.73,1.16,4.47,2.94l16.4,39.67l38.08-0.66l-8.54-20.71l-28.05-6.28
	c-1.98-0.45-3.45-2.06-3.66-4.03l-1.04-10.01c-0.14-1.3,0.3-2.59,1.2-3.56c0.9-0.96,2.18-1.51,3.52-1.51h11.96
	c2.09,0,3.79,1.64,3.79,3.67c0,2.02-1.7,3.67-3.79,3.67h-8.83l0.53,5.05l20.94,4.69l-6.44-15.6l-7.56-8.15l-38.28-0.87
	c-1.75-0.04-3.33-1-4.14-2.5L21.86,43c-0.61-1.13-0.71-2.47-0.28-3.67c0.42-1.2,1.35-2.2,2.55-2.73l13.5-5.96
	c0.63-0.28,1.3-0.42,1.99-0.42c0.88,0,1.75,0.24,2.51,0.69c1.36,0.81,2.21,2.21,2.29,3.76l0.56,11.93c0.04,0.98-0.31,1.92-0.99,2.64
	c-0.68,0.73-1.62,1.15-2.63,1.19l-0.19,0.01c-2.02,0-3.67-1.54-3.76-3.51l-0.38-7.95l-7.09,3.13l9.65,17.91l29.53,0.67l-9.7-10.49
	c-1.21-1.31-1.36-3.25-0.36-4.72c0.74-1.1,1.99-1.75,3.34-1.75c0.43,0,0.86,0.07,1.27,0.2l25.36,8.29l10.15-13.54l-7.76-14.67
	l-13.37,2.02l1.05,8.44l3.81,0.33l0.69-4.27c0.29-1.8,1.86-3.11,3.73-3.11c0.2,0,0.4,0.02,0.6,0.05c2.06,0.31,3.48,2.2,3.16,4.2
	l-1.03,6.32c-0.4,2.47-2.64,4.34-5.22,4.34c-0.16,0-0.32-0.01-0.48-0.02l-7.78-0.68c-2.47-0.22-4.48-2.1-4.78-4.49l-1.54-12.36
	c-0.35-2.76,1.6-5.25,4.43-5.68l17.2-2.6c0.28-0.04,0.55-0.06,0.83-0.06c1.98,0,3.78,1.07,4.69,2.79l6.76,12.78l5.04-6.73
	c0.75-1,1.96-1.6,3.25-1.6c0.49,0,0.98,0.09,1.44,0.27c1.7,0.64,2.74,2.31,2.53,4.06l-6.22,51.24l22.55,36.67l14.43-22.48
	l-0.67-0.41l-0.08-0.04L125.46,79.4c-1.54-1-2.37-2.79-2.11-4.57l2.75-18.8c0.23-1.57,1.25-2.91,2.73-3.59
	c0.66-0.31,1.36-0.46,2.08-0.46c0.88,0,1.75,0.23,2.5,0.68l11.76,6.86c1.34,0.78,2.21,2.15,2.33,3.67l0.8,10.1
	c0.08,0.98-0.24,1.93-0.9,2.68c-0.66,0.74-1.58,1.19-2.58,1.27c-0.1,0.01-0.2,0.01-0.3,0.01c-1.96,0-3.62-1.49-3.77-3.39l-0.69-8.75
	l-7.03-4.1l-1.93,13.2l20.08,13.01l12.08-18.81L148,43.09c-0.9-1.51-0.65-3.43,0.6-4.68c0.75-0.73,1.79-1.16,2.87-1.16
	c0.67,0,1.34,0.17,1.94,0.49l8.91,4.8l0.37-0.64l0.08-0.15c0.05-0.08,0.08-0.13,0.11-0.19l10.15-14.01l-12.32-4.52l-4.04,4.37
	l3.37,1.86c0.88,0.49,1.51,1.27,1.78,2.22s0.14,1.94-0.36,2.79c-0.68,1.15-1.94,1.86-3.3,1.86c-0.65,0-1.3-0.17-1.87-0.48
	l-6.03-3.32c-1.35-0.75-2.27-2.03-2.52-3.52c-0.25-1.49,0.2-2.98,1.24-4.11l7.22-7.8c0.96-1.04,2.36-1.64,3.83-1.64
	c0.61,0,1.21,0.11,1.79,0.32l16.86,6.19c1.48,0.55,2.61,1.71,3.07,3.18c0.47,1.47,0.22,3.04-0.7,4.31l-12.17,16.82l10.48,5.64
	l13.99-13.05c0.75-0.69,1.74-1.08,2.78-1.08c0.83,0,1.62,0.25,2.3,0.71c1.56,1.06,2.13,3.06,1.35,4.76l-1.22,2.63l37.75,3.99
	l2.23-17.79l-7.85,0.28v5.82c0,2.02-1.7,3.67-3.79,3.67c-2.09,0-3.79-1.65-3.79-3.67v-8.32c0-2.57,2.08-4.66,4.73-4.75l13.75-0.49
	c1.36,0,2.67,0.56,3.6,1.54c0.97,1.03,1.43,2.41,1.25,3.79l-2.92,23.35c-0.3,2.38-2.39,4.18-4.87,4.18c-0.18,0-0.35-0.01-0.53-0.03
	l-35.03-3.7l-1.81-0.2c-0.79-0.08-1.57-0.17-2.35-0.25c-2.19-0.22-3.16-0.36-3.59-0.44c-0.67,1.44-10.32,22.29-10.32,22.29
	l15.42-5.46l-0.43-7.35c-0.06-0.97,0.28-1.92,0.96-2.65c0.67-0.73,1.6-1.17,2.61-1.22c0.08,0,0.15-0.01,0.23-0.01
	c2,0,3.65,1.53,3.77,3.47l0.53,9.23c0.13,2.13-1.18,4.05-3.24,4.78l-6,2.13c-1.29,0.46-2.57,0.93-3.85,1.4
	c-1.72,0.64-3.45,1.28-5.19,1.88c-1.65,0.57-3.14,1.04-4.53,1.44c-0.63,0.19-1.27,0.34-1.92,0.49c-0.8,0.18-1.62,0.38-2.41,0.63
	l-11.62,25.13l37.48-25.5c0.5-0.35,1.13-0.59,1.78-0.68l27.06-3.32l-0.1-0.78l-0.02-0.11l-0.6-7.45h-10.54
	c-2.09,0-3.79-1.65-3.79-3.67c0-2.03,1.7-3.68,3.79-3.68h13.21c2.44,0,4.49,1.85,4.68,4.2l0.84,10.57l7.35-0.91
	c0.18-0.02,0.35-0.03,0.52-0.03c1.8,0,3.34,1.13,3.83,2.82c0.55,1.86-0.37,3.79-2.19,4.59l-28.57,12.67l-16.58,15.27l34.42,2.1
	l1.98-8.26l-8.01-0.89l-4.41,4.27c-0.71,0.69-1.67,1.08-2.68,1.08s-1.96-0.39-2.68-1.08c-0.71-0.69-1.11-1.62-1.11-2.6
	s0.4-1.9,1.11-2.59l5.37-5.21c0.9-0.87,2.1-1.36,3.36-1.36c0.18,0,0.37,0.01,0.56,0.04l12.46,1.38c1.36,0.15,2.58,0.85,3.37,1.93
	c0.78,1.08,1.05,2.43,0.75,3.72l-3.22,13.47c-0.5,2.12-2.42,3.59-4.65,3.59c-0.1,0-0.2,0-0.31-0.01l-26.38-1.61
	c-3.02-0.18-6.04-0.37-9.06-0.55c-2.7-0.17-5.34-0.38-7.88-0.98c-1.65,1.52-3.3,3.04-4.96,4.56l-7.99,7.35l48.66,1.55
	c1.91,0.06,3.51,1.44,3.82,3.26c0.3,1.83-0.78,3.62-2.58,4.26l-28.53,10.16l25.64,22.35l10.39-9.76l-6.92-6.89l-5.18,4.66
	c-0.7,0.63-1.62,0.98-2.58,0.98c-1.05,0-2.06-0.43-2.78-1.18c-0.68-0.72-1.04-1.66-1-2.64c0.04-0.98,0.47-1.89,1.21-2.55l6.58-5.91
	c1.05-0.95,2.41-1.47,3.83-1.47c1.52,0,2.95,0.59,4.03,1.67l9.6,9.57c1.05,1.04,1.62,2.42,1.59,3.88c-0.02,1.46-0.63,2.83-1.71,3.84
	l-13.09,12.3c-1.05,0.99-2.44,1.53-3.92,1.53c-1.39,0-2.73-0.49-3.76-1.39l-27.85-24.27c-0.22-0.19-0.56-0.61-0.91-1.04
	c-0.28-0.35-0.58-0.71-0.81-0.95l-23.76,8.46l-2.75,64.36l13.68,20.64c0.79,1.19,0.85,2.7,0.15,3.95c-0.7,1.25-2.05,2.03-3.52,2.03
	H130.7c-1.6,0-3.05-0.93-3.68-2.37c-0.63-1.43-0.31-3.08,0.8-4.21l20.23-20.49l-0.61-73.24l-38.42-7.85l-0.27,0.71
	c-0.05,0.14-0.09,0.24-0.14,0.34l-8.89,16.48c-0.85,1.57-2.51,2.55-4.34,2.55c-0.08,0-0.16,0-0.25-0.01l-18.02-0.89
	c-2.4-0.12-4.33-1.89-4.61-4.2l-1.25-10.61c-0.16-1.34,0.28-2.69,1.21-3.7s2.26-1.58,3.65-1.58h8.98c2.09,0,3.79,1.64,3.79,3.67
	c0,2.03-1.7,3.67-3.79,3.67h-5.97l0.65,5.52l14.03,0.7l7.65-14.2c-3.11-0.63-27.34-5.58-27.48-5.61c-0.08,0.01-0.28,0.25-0.34,0.32
	l-0.09,0.1c-0.23,0.26-0.49,0.5-0.79,0.74c-1.16,0.94-2.53,1.51-3.85,2.07c-0.31,0.13-0.63,0.26-0.94,0.4l-28.89,12.66l4.96,13.49
	l6.45-1.47l-5-6.32c-0.62-0.78-0.89-1.74-0.76-2.71c0.14-0.98,0.65-1.84,1.46-2.44c0.66-0.5,1.46-0.76,2.3-0.76
	c1.19,0,2.29,0.52,3.01,1.44l7.57,9.56c1,1.27,1.27,2.93,0.72,4.44c-0.56,1.51-1.85,2.63-3.46,3l-12.93,2.95
	c-0.36,0.08-0.74,0.13-1.11,0.13c-2.05,0-3.88-1.26-4.57-3.13l-6.62-18c-0.84-2.29,0.29-4.87,2.57-5.87l6.95-3.05l-23.18-9.86
	c-1.67-0.71-2.81-2.32-2.89-4.09l-0.57-13.17C13.91,116.43,14.4,115.18,15.31,114.26z M260.22,376.74h-254V262.57h254V376.74z
	 M155,149.42l0.64,77.45c0.01,1-0.37,1.96-1.08,2.69l-15.48,15.68h39.44l-10.75-16.22c-0.46-0.7-0.67-1.46-0.63-2.27l2.9-67.76
	c0.06-1.58,1.09-2.94,2.62-3.48l45.67-16.29l-4.6,0.15l-35-1.11c-1.61-0.05-3.03-1.03-3.6-2.5c-0.58-1.47-0.19-3.11,0.98-4.2
	l43.65-40.12l0.66-0.32l7.74-3.44l-17.7,2.17l-47.39,32.26c-0.68,0.46-1.47,0.7-2.3,0.7c-0.93,0-1.84-0.32-2.55-0.89
	c-1.39-1.1-1.84-2.99-1.11-4.58l29.03-62.46l-3.57,4.03c-0.75,0.64-1.68,0.97-2.63,0.97c-0.68,0-1.35-0.17-1.96-0.49l-16.85-9.08
	l9.77,16.2c0.75,1.23,0.73,2.77-0.05,3.99l-34.76,54.13c-0.73,1.13-2.03,1.83-3.4,1.83c-1.41-0.01-2.73-0.74-3.44-1.89L103.08,82
	c-0.46-0.74-0.65-1.62-0.53-2.48l4.75-39.18L93.62,58.6c-0.77,1.02-1.94,1.6-3.23,1.6c-0.43,0-0.87-0.07-1.29-0.2l-14.96-4.89
	l15.98,17.28l0.32,0.7l20.55,49.81c0.49,1.18,0.35,2.52-0.38,3.58c-0.72,1.07-1.94,1.72-3.25,1.74l-31,0.55l-8.89-0.4l84.35,17.29
	C153.68,146.04,154.98,147.59,155,149.42z"/>
<g>
	<g>
		<path class="st0" d="M26.21,271.34c1.9,0,3.44,0.25,4.62,0.76c1.18,0.51,2.26,1.1,3.24,1.78c0.37,0.26,0.66,0.39,0.86,0.39
			c0.55,0,0.91-0.8,1.08-2.39h0.99c-0.06,0.99-0.1,2.19-0.13,3.59c-0.03,1.4-0.04,3.26-0.04,5.59h-0.99
			c-0.2-1.25-0.47-2.42-0.8-3.49c-0.33-1.07-0.9-1.99-1.71-2.74c-0.78-0.84-1.79-1.49-3.05-1.96c-1.25-0.47-2.53-0.71-3.82-0.71
			c-1.5,0-2.82,0.33-3.97,1c-1.15,0.67-2.12,1.61-2.92,2.84c-0.79,1.23-1.4,2.67-1.81,4.33c-0.42,1.66-0.63,3.48-0.63,5.47
			c0,4.71,0.8,8.15,2.4,10.33s4.01,3.27,7.24,3.27c0.92,0,1.72-0.12,2.4-0.35c0.68-0.24,1.22-0.47,1.62-0.71
			c0.49-0.31,0.81-0.62,0.95-0.92c0.14-0.3,0.22-0.7,0.22-1.2v-3.8c0-1.12-0.11-1.95-0.32-2.49c-0.22-0.54-0.64-0.9-1.27-1.1
			c-0.63-0.2-1.56-0.31-2.77-0.33v-0.78c0.55,0.03,1.2,0.05,1.94,0.06c0.75,0.01,1.53,0.03,2.35,0.04c0.82,0.01,1.56,0.02,2.23,0.02
			c1.04,0,1.98-0.01,2.83-0.04s1.55-0.05,2.1-0.08v0.78c-0.6,0.03-1.06,0.12-1.36,0.27c-0.3,0.16-0.5,0.47-0.6,0.94
			c-0.1,0.47-0.15,1.19-0.15,2.16v7.76h-0.86c-0.03-0.44-0.14-0.93-0.32-1.45c-0.19-0.52-0.47-0.78-0.84-0.78
			c-0.2,0-0.41,0.04-0.63,0.12s-0.58,0.27-1.1,0.59c-1.01,0.63-2.06,1.13-3.15,1.51c-1.1,0.38-2.33,0.57-3.72,0.57
			c-3.08,0-5.72-0.55-7.91-1.67c-2.19-1.11-3.85-2.72-4.99-4.82c-1.14-2.1-1.71-4.61-1.71-7.51c0-3.03,0.63-5.66,1.88-7.88
			s2.97-3.94,5.14-5.16C20.89,271.95,23.39,271.34,26.21,271.34z"/>
		<path class="st0" d="M77.8,271.89v0.78c-0.98,0.03-1.71,0.12-2.2,0.29c-0.49,0.17-0.81,0.48-0.97,0.94
			c-0.16,0.46-0.24,1.17-0.24,2.14v19.45c0,0.94,0.08,1.65,0.24,2.12c0.16,0.47,0.48,0.78,0.97,0.94c0.49,0.16,1.22,0.26,2.2,0.31
			v0.78c-0.72-0.05-1.61-0.08-2.68-0.1c-1.07-0.01-2.15-0.02-3.24-0.02c-1.21,0-2.35,0.01-3.41,0.02c-1.07,0.01-1.92,0.05-2.55,0.1
			v-0.78c0.98-0.05,1.72-0.16,2.23-0.31c0.5-0.16,0.84-0.47,1.02-0.94c0.17-0.47,0.26-1.18,0.26-2.12v-21.45l0.22,0.08l-10.63,25.68
			h-0.69L47.17,274.4v20.07c0,1.1,0.09,1.95,0.26,2.57c0.17,0.61,0.55,1.05,1.12,1.31c0.58,0.26,1.45,0.43,2.64,0.51v0.78
			c-0.55-0.05-1.25-0.08-2.1-0.1c-0.85-0.01-1.65-0.02-2.4-0.02c-0.72,0-1.44,0.01-2.16,0.02c-0.72,0.01-1.31,0.05-1.77,0.1v-0.78
			c0.95-0.08,1.67-0.24,2.16-0.49c0.49-0.25,0.82-0.67,0.99-1.27c0.17-0.6,0.26-1.42,0.26-2.47v-18.58c0-0.97-0.09-1.68-0.26-2.14
			c-0.17-0.46-0.5-0.77-0.99-0.94c-0.49-0.17-1.21-0.27-2.16-0.29v-0.78c0.46,0.03,1.05,0.05,1.77,0.08
			c0.72,0.03,1.44,0.04,2.16,0.04c0.83,0,1.68-0.01,2.53-0.04c0.85-0.03,1.58-0.05,2.18-0.08l9.55,22.27l-0.82,0.51l9.38-22.66
			c0.37,0,0.76,0,1.17,0s0.81,0,1.21,0c1.09,0,2.17-0.01,3.24-0.04C76.19,271.94,77.08,271.92,77.8,271.89z"/>
		<path class="st0" d="M97.98,287.77v2.63h-15.6v-2.63H97.98z"/>
		<path class="st0" d="M115.4,271.89c5.33,0,9.29,1.17,11.88,3.51c2.59,2.34,3.89,5.69,3.89,10.06c0,2.85-0.63,5.34-1.9,7.47
			c-1.27,2.13-3.1,3.78-5.51,4.96c-2.41,1.18-5.32,1.76-8.75,1.76c-0.43,0-1.01-0.01-1.75-0.04c-0.73-0.03-1.49-0.05-2.27-0.06
			c-0.78-0.01-1.48-0.02-2.12-0.02c-1.09,0-2.17,0.01-3.22,0.02c-1.05,0.01-1.91,0.05-2.57,0.1v-0.78c0.98-0.05,1.71-0.16,2.2-0.31
			c0.49-0.16,0.81-0.47,0.97-0.94c0.16-0.47,0.24-1.18,0.24-2.12v-19.45c0-0.97-0.08-1.68-0.24-2.14c-0.16-0.46-0.49-0.77-0.99-0.94
			c-0.5-0.17-1.23-0.27-2.18-0.29v-0.78c0.66,0.03,1.52,0.06,2.57,0.1c1.05,0.04,2.1,0.05,3.13,0.02c1.04-0.03,2.2-0.05,3.48-0.08
			C113.54,271.9,114.59,271.89,115.4,271.89z M114.66,272.6c-1.33,0-2.19,0.22-2.59,0.67c-0.4,0.44-0.61,1.35-0.61,2.71v19.6
			c0,1.36,0.21,2.26,0.63,2.71c0.42,0.44,1.29,0.67,2.61,0.67c2.91,0,5.17-0.52,6.78-1.55s2.75-2.54,3.41-4.53
			c0.66-1.99,0.99-4.4,0.99-7.25c0-2.93-0.36-5.35-1.08-7.27s-1.89-3.36-3.52-4.31C119.67,273.07,117.46,272.6,114.66,272.6z"/>
		<path class="st0" d="M135.36,271.89c0.66,0.03,1.52,0.05,2.57,0.08c1.05,0.03,2.1,0.04,3.13,0.04c1.38,0,2.7-0.01,3.95-0.04
			c1.25-0.03,2.14-0.04,2.66-0.04c2.45,0,4.49,0.29,6.11,0.86c1.63,0.58,2.84,1.38,3.63,2.41c0.79,1.03,1.19,2.22,1.19,3.55
			c0,0.81-0.18,1.67-0.54,2.57c-0.36,0.9-0.99,1.74-1.88,2.51c-0.89,0.77-2.1,1.41-3.63,1.9c-1.53,0.5-3.47,0.75-5.83,0.75h-4.15
			v-0.78h3.72c1.93,0,3.41-0.29,4.43-0.88s1.71-1.37,2.07-2.35c0.36-0.98,0.54-2.07,0.54-3.27c0-2.06-0.49-3.67-1.47-4.8
			c-0.98-1.14-2.68-1.71-5.1-1.71c-1.24,0-2.05,0.22-2.44,0.67c-0.39,0.45-0.58,1.35-0.58,2.71v19.45c0,0.94,0.09,1.65,0.26,2.12
			c0.17,0.47,0.5,0.78,0.99,0.94c0.49,0.16,1.21,0.26,2.16,0.31v0.78c-0.69-0.05-1.56-0.08-2.61-0.1c-1.05-0.01-2.12-0.02-3.22-0.02
			c-1.21,0-2.34,0.01-3.39,0.02c-1.05,0.01-1.91,0.05-2.57,0.1v-0.78c0.98-0.05,1.71-0.16,2.2-0.31c0.49-0.16,0.81-0.47,0.97-0.94
			c0.16-0.47,0.24-1.18,0.24-2.12v-19.45c0-0.97-0.08-1.68-0.24-2.14c-0.16-0.46-0.49-0.77-0.99-0.94c-0.5-0.17-1.23-0.27-2.18-0.29
			V271.89z M142.66,285.81c1.47,0.05,2.65,0.11,3.54,0.18s1.64,0.12,2.25,0.18c0.61,0.05,1.17,0.12,1.69,0.2
			c2.16,0.26,3.74,0.78,4.73,1.57c0.99,0.78,1.68,1.99,2.05,3.61l1.08,4c0.26,1.12,0.54,1.92,0.84,2.39
			c0.3,0.47,0.76,0.71,1.36,0.71c0.46-0.03,0.84-0.15,1.15-0.37c0.3-0.22,0.63-0.53,0.97-0.92l0.61,0.43
			c-0.66,0.81-1.35,1.42-2.07,1.82c-0.72,0.4-1.69,0.61-2.9,0.61c-1.24,0-2.3-0.29-3.18-0.88s-1.5-1.71-1.88-3.35l-0.86-3.92
			c-0.26-1.12-0.55-2.1-0.86-2.92c-0.32-0.82-0.76-1.47-1.32-1.94s-1.38-0.71-2.44-0.71h-4.67L142.66,285.81z"/>
		<path class="st0" d="M186.74,271.89c-0.12,0.99-0.19,1.95-0.24,2.88c-0.04,0.93-0.07,1.64-0.07,2.14c0,0.5,0.01,0.97,0.04,1.41
			s0.06,0.81,0.09,1.1h-0.99c-0.2-1.67-0.51-2.99-0.93-3.96c-0.42-0.97-1.04-1.65-1.86-2.06c-0.82-0.4-1.97-0.61-3.43-0.61h-2.98
			c-0.92,0-1.62,0.07-2.1,0.22c-0.48,0.14-0.8,0.43-0.97,0.86c-0.17,0.43-0.26,1.1-0.26,2.02v19.76c0,0.89,0.09,1.56,0.26,2
			c0.17,0.45,0.5,0.74,0.97,0.88c0.47,0.14,1.17,0.22,2.1,0.22h2.81c1.64,0,2.94-0.24,3.91-0.71c0.96-0.47,1.7-1.24,2.2-2.31
			c0.5-1.07,0.89-2.53,1.14-4.39h0.99c-0.09,0.76-0.13,1.75-0.13,2.98c0,0.52,0.02,1.28,0.06,2.27c0.04,0.99,0.12,2.01,0.24,3.06
			c-1.47-0.05-3.13-0.08-4.97-0.1c-1.84-0.01-3.49-0.02-4.93-0.02c-0.66,0-1.51,0-2.55,0s-2.15,0.01-3.35,0.02
			c-1.2,0.01-2.41,0.03-3.63,0.04c-1.22,0.01-2.4,0.03-3.52,0.06v-0.78c0.98-0.05,1.71-0.16,2.2-0.31c0.49-0.16,0.81-0.47,0.97-0.94
			c0.16-0.47,0.24-1.18,0.24-2.12v-19.45c0-0.97-0.08-1.68-0.24-2.14c-0.16-0.46-0.49-0.77-0.99-0.94s-1.23-0.27-2.18-0.29v-0.78
			c1.12,0.03,2.3,0.05,3.52,0.06c1.22,0.01,2.43,0.03,3.63,0.04c1.19,0.01,2.31,0.02,3.35,0.02s1.89,0,2.55,0
			c1.33,0,2.83-0.01,4.52-0.02C183.91,271.98,185.41,271.94,186.74,271.89z M179.56,285.3v0.78h-7.82v-0.78H179.56z M180.82,280.12
			c-0.12,1.49-0.17,2.63-0.15,3.41c0.01,0.78,0.02,1.5,0.02,2.16s0.01,1.37,0.04,2.16c0.03,0.78,0.1,1.92,0.22,3.41h-0.99
			c-0.14-0.86-0.33-1.69-0.56-2.49c-0.23-0.8-0.64-1.44-1.23-1.94c-0.59-0.5-1.51-0.75-2.74-0.75v-0.78c0.92,0,1.65-0.17,2.18-0.51
			c0.53-0.34,0.94-0.78,1.23-1.33c0.29-0.55,0.5-1.12,0.63-1.71c0.13-0.59,0.25-1.13,0.37-1.63H180.82z"/>
		<path class="st0" d="M204.88,271.73l10.54,24.62c0.4,0.97,0.87,1.62,1.4,1.96s1.03,0.52,1.49,0.55v0.78
			c-0.69-0.05-1.51-0.08-2.44-0.1c-0.94-0.01-1.88-0.02-2.83-0.02c-1.21,0-2.33,0.01-3.37,0.02c-1.04,0.01-1.87,0.05-2.51,0.1v-0.78
			c1.47-0.05,2.4-0.28,2.79-0.69c0.39-0.4,0.29-1.27-0.28-2.61l-7.78-19.05l0.69-0.71l-7.17,17.02c-0.52,1.18-0.83,2.16-0.93,2.94
			c-0.1,0.78-0.03,1.4,0.22,1.84c0.24,0.45,0.67,0.76,1.27,0.94c0.61,0.18,1.35,0.29,2.25,0.31v0.78c-0.86-0.05-1.74-0.08-2.61-0.1
			c-0.88-0.01-1.71-0.02-2.48-0.02c-0.69,0-1.3,0.01-1.84,0.02c-0.53,0.01-1.02,0.05-1.45,0.1v-0.78c0.61-0.13,1.21-0.46,1.82-0.98
			c0.6-0.52,1.18-1.41,1.73-2.67l10.02-23.48c0.23,0,0.47,0,0.73,0C204.41,271.73,204.65,271.73,204.88,271.73z M209.42,288.36v0.78
			h-12.88l0.43-0.78H209.42z"/>
		<path class="st0" d="M254.57,271.89v0.78c-0.98,0.03-1.71,0.12-2.2,0.29c-0.49,0.17-0.81,0.48-0.97,0.94
			c-0.16,0.46-0.24,1.17-0.24,2.14v19.45c0,0.94,0.08,1.65,0.24,2.12c0.16,0.47,0.48,0.78,0.97,0.94c0.49,0.16,1.22,0.26,2.2,0.31
			v0.78c-0.72-0.05-1.61-0.08-2.68-0.1c-1.07-0.01-2.15-0.02-3.24-0.02c-1.21,0-2.35,0.01-3.41,0.02c-1.07,0.01-1.92,0.05-2.55,0.1
			v-0.78c0.98-0.05,1.72-0.16,2.23-0.31c0.5-0.16,0.84-0.47,1.02-0.94c0.17-0.47,0.26-1.18,0.26-2.12v-21.45l0.22,0.08l-10.63,25.68
			h-0.69l-11.15-25.41v20.07c0,1.1,0.09,1.95,0.26,2.57c0.17,0.61,0.55,1.05,1.12,1.31c0.58,0.26,1.45,0.43,2.64,0.51v0.78
			c-0.55-0.05-1.25-0.08-2.1-0.1c-0.85-0.01-1.65-0.02-2.4-0.02c-0.72,0-1.44,0.01-2.16,0.02c-0.72,0.01-1.31,0.05-1.77,0.1v-0.78
			c0.95-0.08,1.67-0.24,2.16-0.49c0.49-0.25,0.82-0.67,0.99-1.27c0.17-0.6,0.26-1.42,0.26-2.47v-18.58c0-0.97-0.09-1.68-0.26-2.14
			c-0.17-0.46-0.5-0.77-0.99-0.94c-0.49-0.17-1.21-0.27-2.16-0.29v-0.78c0.46,0.03,1.05,0.05,1.77,0.08
			c0.72,0.03,1.44,0.04,2.16,0.04c0.83,0,1.68-0.01,2.53-0.04c0.85-0.03,1.58-0.05,2.18-0.08l9.55,22.27l-0.82,0.51l9.38-22.66
			c0.37,0,0.76,0,1.17,0s0.81,0,1.21,0c1.09,0,2.17-0.01,3.24-0.04C252.96,271.94,253.85,271.92,254.57,271.89z"/>
	</g>
	<g>
		<g>
			<path class="st0" d="M64.34,310.32c-0.23,2.22-0.39,4.37-0.48,6.45c-0.09,2.08-0.13,3.68-0.13,4.79c0,1.21,0.03,2.38,0.09,3.48
				c0.06,1.11,0.12,2.06,0.17,2.85h-2.01c-0.58-3.96-1.35-7.07-2.31-9.34c-0.96-2.27-2.34-3.91-4.14-4.91c-1.8-1-4.39-1.5-7.76-1.5
				h-3.75v45.12c0,2.11,0.22,3.69,0.65,4.75c0.44,1.06,1.31,1.75,2.62,2.1c1.31,0.34,3.21,0.57,5.71,0.67v1.58
				c-1.63-0.11-3.72-0.17-6.28-0.2c-2.56-0.03-5.18-0.04-7.85-0.04c-2.79,0-5.42,0.01-7.9,0.04c-2.47,0.03-4.46,0.09-5.98,0.2v-1.58
				c2.5-0.11,4.39-0.33,5.67-0.67c1.28-0.34,2.15-1.04,2.62-2.1c0.46-1.06,0.7-2.64,0.7-4.75v-45.12h-3.84
				c-3.26,0-5.82,0.5-7.68,1.5c-1.86,1-3.26,2.64-4.19,4.91c-0.93,2.27-1.69,5.38-2.27,9.34H14c0.12-0.79,0.19-1.74,0.22-2.85
				c0.03-1.11,0.04-2.27,0.04-3.48c0-1.11-0.04-2.7-0.13-4.79c-0.09-2.08-0.25-4.24-0.48-6.45c2.5,0.05,5.23,0.11,8.2,0.16
				c2.97,0.05,5.96,0.08,8.99,0.08c3.02,0,5.76,0,8.2,0c2.44,0,5.15,0,8.11,0c2.97,0,5.96-0.03,8.99-0.08
				C59.17,310.42,61.9,310.37,64.34,310.32z"/>
			<path class="st0" d="M116.08,310.32c-0.23,2.01-0.39,3.95-0.48,5.82c-0.09,1.87-0.13,3.31-0.13,4.31c0,1,0.03,1.95,0.09,2.85
				c0.06,0.9,0.12,1.64,0.17,2.22h-2.01c-0.41-3.38-1.03-6.04-1.88-8c-0.84-1.95-2.09-3.34-3.75-4.16
				c-1.66-0.82-3.97-1.23-6.94-1.23h-6.02c-1.86,0-3.27,0.15-4.23,0.44c-0.96,0.29-1.61,0.87-1.96,1.74
				c-0.35,0.87-0.52,2.23-0.52,4.08v39.9c0,1.79,0.17,3.14,0.52,4.04c0.35,0.9,1,1.49,1.96,1.78c0.96,0.29,2.37,0.44,4.23,0.44h5.67
				c3.32,0,5.95-0.48,7.9-1.42c1.95-0.95,3.43-2.51,4.45-4.67c1.02-2.16,1.79-5.12,2.31-8.87h2.01c-0.17,1.53-0.26,3.54-0.26,6.02
				c0,1.06,0.04,2.59,0.13,4.59c0.09,2.01,0.25,4.06,0.48,6.17c-2.97-0.11-6.31-0.17-10.03-0.2c-3.72-0.03-7.04-0.04-9.95-0.04
				c-1.34,0-3.05,0-5.15,0s-4.35,0.01-6.76,0.04c-2.41,0.03-4.86,0.05-7.33,0.08c-2.47,0.03-4.84,0.07-7.11,0.12v-1.58
				c1.98-0.11,3.46-0.32,4.45-0.63c0.99-0.32,1.64-0.95,1.96-1.9c0.32-0.95,0.48-2.38,0.48-4.27v-39.26c0-1.95-0.16-3.39-0.48-4.31
				c-0.32-0.92-0.99-1.56-2.01-1.9c-1.02-0.34-2.49-0.54-4.41-0.59v-1.58c2.27,0.05,4.64,0.09,7.11,0.12
				c2.47,0.03,4.91,0.05,7.33,0.08c2.41,0.03,4.67,0.04,6.76,0.04s3.81,0,5.15,0c2.67,0,5.71-0.01,9.12-0.04
				C110.36,310.49,113.4,310.42,116.08,310.32z M101.59,337.39v1.58H85.8v-1.58H101.59z M104.12,326.94
				c-0.23,3.01-0.34,5.3-0.31,6.89c0.03,1.58,0.04,3.04,0.04,4.35c0,1.32,0.03,2.77,0.09,4.35c0.06,1.58,0.2,3.88,0.44,6.89h-2.01
				c-0.29-1.74-0.67-3.42-1.13-5.03c-0.47-1.61-1.29-2.92-2.49-3.92c-1.19-1-3.04-1.5-5.54-1.5v-1.58c1.86,0,3.33-0.34,4.41-1.03
				c1.08-0.69,1.9-1.58,2.49-2.69c0.58-1.11,1-2.26,1.27-3.44s0.51-2.28,0.74-3.29H104.12z"/>
			<path class="st0" d="M152.72,310L174,359.71c0.81,1.95,1.76,3.27,2.84,3.96c1.08,0.69,2.08,1.06,3.01,1.11v1.58
				c-1.4-0.11-3.04-0.17-4.93-0.2c-1.89-0.03-3.79-0.04-5.71-0.04c-2.44,0-4.71,0.01-6.8,0.04c-2.09,0.03-3.78,0.09-5.06,0.2v-1.58
				c2.97-0.11,4.84-0.57,5.63-1.39c0.79-0.82,0.6-2.57-0.57-5.26l-15.7-38.47l1.4-1.43l-14.48,34.36c-1.05,2.38-1.67,4.35-1.88,5.94
				c-0.2,1.58-0.06,2.82,0.44,3.72c0.49,0.9,1.35,1.53,2.57,1.9c1.22,0.37,2.73,0.58,4.54,0.63v1.58c-1.75-0.11-3.5-0.17-5.28-0.2
				c-1.77-0.03-3.45-0.04-5.02-0.04c-1.4,0-2.63,0.01-3.71,0.04c-1.08,0.03-2.05,0.09-2.92,0.2v-1.58c1.22-0.26,2.44-0.92,3.66-1.98
				c1.22-1.05,2.38-2.85,3.49-5.38L149.75,310c0.46,0,0.96,0,1.48,0S152.25,310,152.72,310z M161.88,343.56v1.58h-26l0.87-1.58
				H161.88z"/>
			<path class="st0" d="M253.05,310.32v1.58c-1.98,0.05-3.46,0.25-4.45,0.59c-0.99,0.34-1.64,0.98-1.96,1.9
				c-0.32,0.92-0.48,2.36-0.48,4.31v39.26c0,1.9,0.16,3.32,0.48,4.27c0.32,0.95,0.97,1.58,1.96,1.9c0.99,0.32,2.47,0.53,4.45,0.63
				v1.58c-1.45-0.11-3.26-0.17-5.41-0.2c-2.15-0.03-4.33-0.04-6.54-0.04c-2.44,0-4.74,0.01-6.89,0.04c-2.15,0.03-3.87,0.09-5.15,0.2
				v-1.58c1.98-0.11,3.47-0.32,4.49-0.63c1.02-0.32,1.7-0.95,2.05-1.9s0.52-2.38,0.52-4.27v-43.3l0.44,0.16l-21.46,51.85h-1.4
				l-22.51-51.29v40.53c0,2.22,0.17,3.95,0.52,5.19c0.35,1.24,1.1,2.12,2.27,2.65c1.16,0.53,2.94,0.87,5.32,1.03v1.58
				c-1.11-0.11-2.52-0.17-4.23-0.2c-1.72-0.03-3.33-0.04-4.84-0.04c-1.46,0-2.91,0.01-4.36,0.04c-1.45,0.03-2.65,0.09-3.58,0.2
				v-1.58c1.92-0.16,3.37-0.49,4.36-0.99c0.99-0.5,1.66-1.36,2.01-2.57c0.35-1.21,0.52-2.88,0.52-4.99v-37.52
				c0-1.95-0.17-3.39-0.52-4.31c-0.35-0.92-1.02-1.56-2.01-1.9c-0.99-0.34-2.44-0.54-4.36-0.59v-1.58c0.93,0.05,2.12,0.11,3.58,0.16
				c1.45,0.05,2.91,0.08,4.36,0.08c1.69,0,3.39-0.03,5.1-0.08c1.71-0.05,3.18-0.11,4.41-0.16l19.28,44.96l-1.66,1.03l18.93-45.75
				c0.75,0,1.54,0,2.36,0c0.81,0,1.63,0,2.44,0c2.21,0,4.39-0.03,6.54-0.08C249.79,310.42,251.59,310.37,253.05,310.32z"/>
		</g>
	</g>
</g>
</svg>
