<?xml version="1.0" encoding="utf-8"?>
<!-- Generator: Adobe Illustrator 25.0.0, SVG Export Plug-In . SVG Version: 6.00 Build 0)  -->
<svg version="1.1" xmlns="http://www.w3.org/2000/svg" xmlns:xlink="http://www.w3.org/1999/xlink" x="0px" y="0px"
	 viewBox="0 0 450 450" style="enable-background:new 0 0 450 450;" xml:space="preserve">
<style type="text/css">
	.st0{fill-rule:evenodd;clip-rule:evenodd;fill:#FFFFFF;}
	.st1{fill-rule:evenodd;clip-rule:evenodd;fill:#FE0000;}
	.st2{fill-rule:evenodd;clip-rule:evenodd;fill:url(#XMLID_5_);}
	.st3{fill-rule:evenodd;clip-rule:evenodd;fill:url(#XMLID_28_);}
	.st4{fill-rule:evenodd;clip-rule:evenodd;fill:url(#XMLID_29_);}
	.st5{fill-rule:evenodd;clip-rule:evenodd;}
	.st6{fill-rule:evenodd;clip-rule:evenodd;fill:#FF2E56;}
	.st7{fill-rule:evenodd;clip-rule:evenodd;fill:#23F1E7;}
	.st8{fill-rule:evenodd;clip-rule:evenodd;fill:#0B66C3;}
	.st9{fill-rule:evenodd;clip-rule:evenodd;fill:#1AA2F8;}
	.st10{fill-rule:evenodd;clip-rule:evenodd;fill:url(#XMLID_30_);}
</style>
<g id="BACKGROUND">
	<rect id="XMLID_104_" x="2054.71" y="534.44" class="st0" width="2850" height="1425"/>
</g>
<g id="Layer_1">
	<g id="XMLID_35_">
		<path id="XMLID_40_" class="st1" d="M378.21,450H71.79C32.3,450,0,417.7,0,378.21V71.79C0,32.31,32.3,0,71.79,0h306.42
			C417.7,0,450,32.31,450,71.79v306.42C450,417.7,417.7,450,378.21,450z"/>
		<g id="XMLID_37_">
			<path id="XMLID_39_" class="st0" d="M142.59,129.72c26.92-2.15,58.69-3.23,82.92-3.23l0,0l0,0c24.23,0,55.46,1.08,82.92,3.23
				c31.77,2.69,47.92,8.08,52.23,39.85c2.15,14.54,3.23,34.46,3.23,54.92l0,0c0,20.46-1.08,40.92-3.23,54.92
				c-4.31,32.31-20.46,37.15-52.23,39.85c-27.46,2.69-58.69,3.23-82.92,3.23l0,0l0,0c-24.23,0-56-0.54-82.92-3.23
				c-31.77-2.69-48.46-7.54-52.77-39.85c-1.62-14-2.69-34.46-2.69-54.92l0,0c0-20.46,1.08-40.38,2.69-54.92
				C94.13,137.79,110.82,132.41,142.59,129.72L142.59,129.72z"/>
			<polygon id="XMLID_38_" class="st1" points="197.51,183.03 269.67,224.49 197.51,266.49 			"/>
		</g>
	</g>
	<g id="XMLID_100_">
		<linearGradient id="XMLID_5_" gradientUnits="userSpaceOnUse" x1="2507.6492" y1="719.8045" x2="2507.6492" y2="1169.8044">
			<stop  offset="0" style="stop-color:#19AEFF"/>
			<stop  offset="0.9952" style="stop-color:#0065E7"/>
		</linearGradient>
		<path id="XMLID_103_" class="st2" d="M2660.86,1169.8h-306.42c-39.48,0-71.79-32.3-71.79-71.79V791.59
			c0-39.48,32.3-71.79,71.79-71.79h306.42c39.48,0,71.79,32.3,71.79,71.79v306.42C2732.65,1137.5,2700.34,1169.8,2660.86,1169.8z"/>
		<g id="XMLID_101_">
			<path id="XMLID_102_" class="st0" d="M2465.49,1114.62h61.34v-141.5h45.31l9.06-57.16h-54.37v-43.22
				c0-16.03,15.33-25.09,29.97-25.09h26.49v-47.4l-47.4-2.09c-45.31-2.79-70.4,32.76-70.4,75.28v42.52h-51.58v57.16h51.58V1114.62z"
				/>
		</g>
	</g>
	<g id="XMLID_91_">
		<linearGradient id="XMLID_28_" gradientUnits="userSpaceOnUse" x1="2935.7068" y1="759.1586" x2="3375.0713" y2="1130.4504">
			<stop  offset="0" style="stop-color:#0496FB"/>
			<stop  offset="0.1383" style="stop-color:#3F72FF"/>
			<stop  offset="0.2795" style="stop-color:#784AFF"/>
			<stop  offset="0.4211" style="stop-color:#B038EE"/>
			<stop  offset="0.5656" style="stop-color:#CD40BE"/>
			<stop  offset="0.7198" style="stop-color:#FF415A"/>
			<stop  offset="0.8647" style="stop-color:#F7941E"/>
			<stop  offset="0.9442" style="stop-color:#FFE800"/>
		</linearGradient>
		<path id="XMLID_99_" class="st3" d="M3308.6,1169.8h-306.42c-39.48,0-71.79-32.3-71.79-71.79V791.59
			c0-39.48,32.3-71.79,71.79-71.79h306.42c39.48,0,71.79,32.3,71.79,71.79v306.42C3380.39,1137.5,3348.08,1169.8,3308.6,1169.8z"/>
		<g id="XMLID_92_">
			<path id="XMLID_93_" class="st0" d="M3089.41,801.73h132.27c42.49,0,77.44,34.95,77.44,77.44v131.58
				c0,42.49-34.95,77.44-77.44,77.44h-132.27c-42.49,0-77.44-34.95-77.44-77.44V879.17
				C3011.97,836.68,3046.92,801.73,3089.41,801.73L3089.41,801.73z M3232.64,851.75L3232.64,851.75c8.91,0,16.45,7.54,16.45,16.45
				l0,0c0,8.91-7.54,16.45-16.45,16.45l0,0c-9.59,0-16.45-7.54-16.45-16.45l0,0C3216.19,859.29,3223.04,851.75,3232.64,851.75
				L3232.64,851.75z M3155.2,866.83h0.69c42.49,0,78.13,35.64,78.13,78.13l0,0c0,43.17-35.64,78.13-78.13,78.13h-0.69
				c-42.49,0-77.44-34.95-77.44-78.13l0,0C3077.76,902.47,3112.71,866.83,3155.2,866.83L3155.2,866.83z M3155.2,893.56h0.69
				c28.1,0,51.4,23.3,51.4,51.4l0,0c0,28.78-23.3,52.08-51.4,52.08h-0.69c-28.1,0-51.4-23.3-51.4-52.08l0,0
				C3103.8,916.86,3127.1,893.56,3155.2,893.56L3155.2,893.56z M3090.09,826.4h130.89c29.47,0,53.45,23.99,53.45,53.45v130.21
				c0,29.47-23.99,53.45-53.45,53.45h-130.89c-29.47,0-53.45-23.99-53.45-53.45V879.85C3036.64,850.38,3060.63,826.4,3090.09,826.4
				L3090.09,826.4z"/>
		</g>
	</g>
	<g id="XMLID_85_">
		<linearGradient id="XMLID_29_" gradientUnits="userSpaceOnUse" x1="3803.5867" y1="1324.0664" x2="3803.5867" y2="1774.0664">
			<stop  offset="0" style="stop-color:#42EF62"/>
			<stop  offset="0.9952" style="stop-color:#19CB3C"/>
		</linearGradient>
		<path id="XMLID_90_" class="st4" d="M3956.8,1774.07h-306.42c-39.48,0-71.79-32.3-71.79-71.79v-306.42
			c0-39.48,32.3-71.79,71.79-71.79h306.42c39.48,0,71.79,32.3,71.79,71.79v306.42C4028.59,1741.76,3996.28,1774.07,3956.8,1774.07z"
			/>
		<path id="XMLID_86_" class="st0" d="M3752.89,1483.93c7.94-5.05,13-1.44,15.89,6.5l7.22,18.77c0,0,5.05,10.11-7.94,20.22
			c-2.17,1.44-2.17,1.44-1.44,5.05c2.89,8.66,14.44,34.66,51.26,54.88c3.61,2.17,4.33,2.17,7.94-0.72c2.89-2.89,6.5-6.5,9.39-9.39
			c6.5-5.78,10.11-7.94,15.88-3.61c4.33,2.89,8.66,6.5,13,9.39c4.33,3.61,11.55,7.94,4.33,16.61l-6.5,7.94
			c-9.39,11.55-17.33,12.27-29.6,9.39c-46.93-12.27-81.59-45.49-96.75-92.42C3730.51,1508.48,3737.73,1493.32,3752.89,1483.93
			L3752.89,1483.93z M3803.43,1406.67c78.7,0,142.24,63.54,142.24,142.24c0,78.7-63.54,142.24-142.24,142.24
			c-21.66,0-41.88-4.33-59.93-13l-75.81,13l10.11-75.09l-0.72-1.44c-10.11-19.5-15.88-41.88-15.88-65.71
			C3661.19,1470.21,3724.73,1406.67,3803.43,1406.67L3803.43,1406.67z M3713.9,1659.39l20.22-3.61l12.27-2.17
			c17.33,9.39,36.1,14.44,57.04,14.44c65.71,0,119.14-53.43,119.14-119.14s-53.43-119.14-119.14-119.14s-119.14,53.43-119.14,119.14
			c0,23.83,7.22,45.49,18.77,64.26l-1.44,10.83l-2.89,21.66l-2.17,16.61L3713.9,1659.39z"/>
	</g>
	<g id="XMLID_22_">
		<path id="XMLID_81_" class="st5" d="M4604.83,1169.8h-306.42c-39.48,0-71.79-32.3-71.79-71.79V791.59
			c0-39.48,32.31-71.79,71.79-71.79h306.42c39.48,0,71.79,32.3,71.79,71.79v306.42C4676.62,1137.5,4644.31,1169.8,4604.83,1169.8z"
			/>
		<g id="XMLID_23_">
			<g id="XMLID_24_">
				<path id="XMLID_69_" class="st6" d="M4426.92,913.28c-0.63,0-1.26,0-1.88,0v38.95c-4.4-1.26-8.17-1.88-12.56-1.88
					c-23.87,0-42.72,18.85-42.72,42.09c0,15.71,9.42,30.15,22.62,37.06c-5.03-6.91-7.54-15.7-7.54-24.5
					c0-23.24,18.85-42.09,42.09-42.09c4.4,0,8.79,0.63,12.56,1.88v-50.26C4435.72,913.91,4431.32,913.28,4426.92,913.28
					L4426.92,913.28z M4359.71,1067.19c16.96,17.59,40.83,28.9,67.22,28.9c50.88,0,92.35-40.83,92.35-91.09V901.97
					c18.85,16.96,43.35,25.13,68.47,23.24v-49.63c-5.03,1.26-10.05,1.26-14.45,0v37.06c-25.13,1.88-50.26-6.28-69.1-23.24v103.03
					c0,50.26-40.83,91.09-91.72,91.09C4393,1083.52,4374.78,1077.24,4359.71,1067.19L4359.71,1067.19z M4537.49,854.86
					c-11.94-13.19-18.85-30.78-18.22-47.74l0,0h-13.82C4508.59,825.96,4521.15,844.81,4537.49,854.86L4537.49,854.86z"/>
				<path id="XMLID_26_" class="st7" d="M4412.48,900.72c-50.88,0-92.35,40.83-92.35,91.72c0,30.78,15.71,58.42,39.58,74.76
					c-15.08-16.33-24.5-38.32-24.5-62.19c0-49.63,39.58-90.46,89.83-91.72v-11.31C4420.64,901.34,4416.87,900.72,4412.48,900.72
					L4412.48,900.72z M4573.3,875.59v-12.56c-12.56,2.51-25.13-1.26-35.81-8.17C4547.54,866.16,4559.47,873.7,4573.3,875.59
					L4573.3,875.59z M4505.45,807.11c-0.63-4.4-1.26-8.17-1.26-12.56l0,0h-49.63V911.4v81.04l0,0c0,23.24-18.85,42.09-42.09,42.09
					c-7.54,0-13.82-1.88-20.1-5.03c8.17,10.68,20.73,17.59,34.55,17.59c23.87,0,42.72-18.85,42.72-42.09l0,0v-81.04V807.11H4505.45z
					"/>
				<path id="XMLID_25_" class="st0" d="M4359.71,1067.19c15.08,10.05,33.29,16.33,52.77,16.33c50.88,0,91.72-40.83,91.72-91.09
					V889.41c18.85,16.96,43.97,25.13,69.1,23.24v-37.06c-13.82-1.88-25.76-9.42-35.81-20.73c-16.33-10.05-28.9-28.9-32.04-47.74
					h-35.81v116.85V1005l0,0c0,23.24-18.85,42.09-42.72,42.09c-13.82,0-26.38-6.91-34.55-17.59c-13.19-6.91-22.62-21.36-22.62-37.06
					c0-23.24,18.85-42.09,42.72-42.09c4.4,0,8.17,0.63,12.56,1.88v-38.95c-50.26,1.26-89.83,42.09-89.83,91.72
					C4335.21,1028.87,4344.63,1050.86,4359.71,1067.19L4359.71,1067.19z"/>
			</g>
		</g>
	</g>
	<g id="XMLID_16_">
		<path id="XMLID_21_" class="st8" d="M4604.83,1774.07h-306.42c-39.48,0-71.79-32.3-71.79-71.79v-306.42
			c0-39.48,32.31-71.79,71.79-71.79h306.42c39.48,0,71.79,32.3,71.79,71.79v306.42C4676.62,1741.76,4644.31,1774.07,4604.83,1774.07
			z"/>
		<path id="XMLID_17_" class="st0" d="M4326.72,1503.78h50.64v170.04h-50.64V1503.78z M4351.72,1417.51
			c16.88,0,30.63,13.75,30.63,30.63c0,16.88-13.75,30.63-30.63,30.63c-16.88,0-30.01-13.75-30.01-30.63
			C4321.72,1431.26,4334.84,1417.51,4351.72,1417.51L4351.72,1417.51z M4407.36,1503.78h50.01v23.76
			c10.63-15.63,28.13-25.63,48.14-25.63h13.75c31.88,0,57.51,26.26,57.51,57.51v25.63v30.63v58.14h-50.01v-0.63v-15l0,0v-76.27l0,0
			c-0.62-19.38-13.75-34.38-33.13-34.38l0,0c-19.38,0-35.63,15-36.26,34.38l0,0v66.26v25.63h-50.01V1503.78z"/>
	</g>
	<g id="XMLID_11_">
		<path id="XMLID_15_" class="st1" d="M2660.86,1774.07h-306.42c-39.48,0-71.79-32.3-71.79-71.79v-306.42
			c0-39.48,32.3-71.79,71.79-71.79h306.42c39.48,0,71.79,32.3,71.79,71.79v306.42C2732.65,1741.76,2700.34,1774.07,2660.86,1774.07z
			"/>
		<g id="XMLID_12_">
			<path id="XMLID_14_" class="st0" d="M2425.24,1453.78c26.92-2.15,58.69-3.23,82.92-3.23l0,0l0,0c24.23,0,55.46,1.08,82.92,3.23
				c31.77,2.69,47.92,8.08,52.23,39.85c2.15,14.54,3.23,34.46,3.23,54.92l0,0c0,20.46-1.08,40.92-3.23,54.92
				c-4.31,32.31-20.46,37.15-52.23,39.85c-27.46,2.69-58.69,3.23-82.92,3.23l0,0l0,0c-24.23,0-56-0.54-82.92-3.23
				c-31.77-2.69-48.46-7.54-52.77-39.85c-1.62-14-2.69-34.46-2.69-54.92l0,0c0-20.46,1.08-40.38,2.69-54.92
				C2376.78,1461.86,2393.47,1456.48,2425.24,1453.78L2425.24,1453.78z"/>
			<polygon id="XMLID_13_" class="st1" points="2480.16,1507.09 2552.32,1548.55 2480.16,1590.55 			"/>
		</g>
	</g>
	<g id="XMLID_7_">
		<path id="XMLID_10_" class="st9" d="M3956.8,1169.8h-306.42c-39.48,0-71.79-32.3-71.79-71.79V791.59
			c0-39.48,32.3-71.79,71.79-71.79h306.42c39.48,0,71.79,32.3,71.79,71.79v306.42C4028.59,1137.5,3996.28,1169.8,3956.8,1169.8z"/>
		<g id="XMLID_8_">
			<path id="XMLID_9_" class="st0" d="M3805.92,904.99c-11.08-58.35,59.08-93.06,100.44-50.96c0,0,18.46-5.17,34.71-15.51
				c0,0-5.91,19.94-25.85,32.5c0,0,22.16-2.95,31.76-8.86c0,0-9.6,19.94-27.33,27.33c9.6,133.68-134.42,214.92-251.11,148.45
				c0,0,57.61,2.95,81.98-25.11c0,0-35.45,2.95-53.18-39.88c0,0,13.29,5.17,26.59-1.48c0,0-41.36-6.65-45.05-56.13
				c0,0,13.29,10.34,28.07,6.65c0,0-45.79-27.33-19.94-76.81C3687.01,845.17,3735.76,907.21,3805.92,904.99L3805.92,904.99z"/>
		</g>
	</g>
	<g id="XMLID_1_">
		<linearGradient id="XMLID_30_" gradientUnits="userSpaceOnUse" x1="3155.3892" y1="1324.0664" x2="3155.3892" y2="1774.0664">
			<stop  offset="0" style="stop-color:#39AEF0"/>
			<stop  offset="1" style="stop-color:#259ED8"/>
		</linearGradient>
		<path id="XMLID_6_" class="st10" d="M3308.6,1774.07h-306.42c-39.48,0-71.79-32.3-71.79-71.79v-306.42
			c0-39.48,32.3-71.79,71.79-71.79h306.42c39.48,0,71.79,32.3,71.79,71.79v306.42C3380.39,1741.76,3348.08,1774.07,3308.6,1774.07z"
			/>
		<g id="XMLID_3_">
			<path id="XMLID_4_" class="st0" d="M3021.77,1543.35c61.85-25.94,136.67-62.85,201.52-87.79c59.86-21.95,58.86-15.96,49.88,43.89
				c-6.98,47.89-14.96,95.77-22.94,143.66c-2.99,22.94-14.96,34.92-39.9,20.95l-77.81-54.87c-10.97-8.98-7.98-15.96,1-24.94
				l71.83-67.84c18.95-18.95,9.98-25.94-11.97-10.97l-98.76,66.84c-13.97,9.98-28.93,9.98-44.89,4.99l-33.92-11.97
				C2993.84,1557.32,3010.8,1548.34,3021.77,1543.35L3021.77,1543.35z"/>
		</g>
	</g>
</g>
</svg>
